#define cursor_width 32
#define cursor_height 32
#define cursor_x_hot 0
#define cursor_y_hot 0
static unsigned char cursor_bits[] = {
   0x00, 0x00, 0x00, 0x00, 0x07, 0x00, 0x00, 0x00, 0x1d, 0x00, 0x00, 0x00,
   0x73, 0x00, 0x00, 0x00, 0xc2, 0x01, 0x00, 0x00, 0x06, 0x03, 0x00, 0x00,
   0x04, 0x0e, 0x00, 0x00, 0x0c, 0x08, 0x00, 0x00, 0x08, 0x08, 0x00, 0x00,
   0x18, 0xf8, 0x03, 0x00, 0x30, 0x00, 0x02, 0x00, 0x20, 0xf0, 0x03, 0x00,
   0xe0, 0x21, 0x00, 0x00, 0x00, 0x65, 0x00, 0x00, 0x00, 0xdd, 0x01, 0x00,
   0x00, 0x35, 0x01, 0x00, 0x00, 0xa5, 0x01, 0x00, 0x00, 0xe5, 0x00, 0x00,
   0x00, 0x07, 0x00, 0x00, 0x00, 0x00, 0x00, 0x00, 0x00, 0x00, 0x00, 0x00,
   0x00, 0x00, 0x00, 0x00, 0x00, 0x00, 0x00, 0x00, 0x00, 0x00, 0x00, 0x00,
   0x00, 0x00, 0x00, 0x00, 0x00, 0x00, 0x00, 0x00, 0x00, 0x00, 0x00, 0x00,
   0x00, 0x00, 0x00, 0x00, 0x00, 0x00, 0x00, 0x00, 0x00, 0x00, 0x00, 0x00,
   0x00, 0x00, 0x00, 0x00, 0x00, 0x00, 0x00, 0x00 };
